<svg xmlns="http://www.w3.org/2000/svg" width="1440" height="893" fill="none" viewBox="0 0 1440 893"><path fill="#132742" d="M1613.52 307.31C1934.86 403.159 1667.08 818.504 1613.52 882.403C1559.96 946.302 1399.29 690.706 1292.18 690.706C1185.07 690.706 1077.95 882.403 970.84 882.403C863.726 882.403 756.613 690.706 649.5 690.706C542.387 690.706 435.274 882.403 328.16 882.403C221.047 882.403 113.934 690.706 6.82079 690.706C-100.292 690.706 -260.962 946.302 -314.519 882.403C-368.075 818.504 -635.858 403.159 -314.519 307.31"/><path fill="#132742" d="M-265.199 314.842C-578.932 263.343 -317.488 40.1822 -265.199 5.84975C-212.91 -28.4827 -56.0439 108.847 48.5338 108.847C153.112 108.847 257.689 5.84975 362.267 5.84975C466.845 5.84975 571.422 108.847 676 108.847C780.578 108.847 885.156 5.84975 989.733 5.84975C1094.31 5.84975 1198.89 108.847 1303.47 108.847C1408.04 108.847 1564.91 -28.4827 1617.2 5.84975C1669.49 40.1822 1930.93 263.343 1617.2 314.842"/></svg>